<?xml version="1.0" encoding="utf-8"?>
<!-- Generator: Adobe Illustrator 24.3.0, SVG Export Plug-In . SVG Version: 6.00 Build 0)  -->
<svg version="1.1" id="Layer_1" xmlns="http://www.w3.org/2000/svg" xmlns:xlink="http://www.w3.org/1999/xlink" x="0px" y="0px"
	 viewBox="0 0 342.5 189" style="enable-background:new 0 0 342.5 189;" xml:space="preserve">
<style type="text/css">
	.st0{fill:#C8001E;}
	.st1{font-family:'Aller-Bold';}
	.st2{font-size:16px;}
	.st3{fill:#FFFFFF;}
	.st4{fill:none;stroke:#161615;stroke-width:0.2;stroke-miterlimit:10;}
	.st5{fill:url(#Path_104_1_);}
	.st6{fill:url(#Path_105_1_);}
	.st7{fill:url(#Path_106_1_);}
	.st8{fill:url(#Path_107_1_);}
	.st9{fill:url(#Path_108_1_);}
	.st10{fill:#F1B5A8;}
	.st11{enable-background:new    ;}
</style>
<g id="Group_176" transform="translate(-190.5 -3141)">
	<g id="Group_163" transform="translate(237.714 3123.301)">
		<text transform="matrix(1 0 0 1 128.8749 152.996)" class="st0 st1 st2">Logistics</text>
		<path id="Union_3" class="st3" d="M79.3,130.6c-1.2-0.5-2.3-1.2-3.2-2.1c-0.8-0.9-1.5-2-1.8-3.3c-0.4-1.3-0.6-2.7-0.6-4.1
			c0-1.4,0.2-2.8,0.6-4.1c0.4-1.2,1-2.4,1.8-3.3c0.8-1,1.8-1.7,3-2.3c1.3-0.6,2.7-0.9,4.2-0.8c1.3,0,2.5,0.2,3.7,0.7
			c1,0.5,2,1.1,2.8,2c0.8,0.9,1.4,1.9,1.7,3c0.4,1.2,0.6,2.5,0.6,3.8c0,0.5,0,1-0.1,1.4c0,0.5-0.1,0.9-0.1,1.1H79
			c0,1.3,0.6,2.5,1.6,3.4c1.1,0.7,2.5,1.1,3.8,1c0.9,0,1.8-0.1,2.7-0.3c0.9-0.2,1.8-0.4,2.6-0.7c0.3,0.6,0.6,1.2,0.7,1.8
			c0.2,0.8,0.3,1.5,0.3,2.3c-2.2,0.8-4.5,1.2-6.8,1.2C82.4,131.4,80.8,131.1,79.3,130.6z M80.2,115.7c-0.7,0.9-1.1,1.9-1.2,3h7.8
			c0-1.1-0.4-2.1-1-3c-0.7-0.8-1.6-1.2-2.6-1.1C82.1,114.6,81,115,80.2,115.7z M101.5,130.8c-1.2-0.4-2.3-1-3.3-1.8
			c-1-0.9-1.8-1.9-2.3-3.1c-0.6-1.5-0.9-3.1-0.8-4.7c0-1.4,0.2-2.8,0.7-4.1c0.4-1.2,1.1-2.4,2-3.4c0.9-1,2-1.7,3.2-2.3
			c1.3-0.6,2.8-0.8,4.2-0.8c0.5,0,0.9,0,1.4,0.1c0.5,0,1,0.1,1.4,0.2v-8.2c0.5-0.1,0.9-0.1,1.4-0.2c0.4,0,0.9,0,1.3,0s0.9,0,1.3,0
			c0.5,0,0.9,0.1,1.4,0.2v27.5c-1.2,0.4-2.4,0.6-3.7,0.8c-1.5,0.2-3,0.3-4.5,0.3C104.1,131.3,102.8,131.2,101.5,130.8z M103.5,115.3
			c-0.6,0.3-1.2,0.8-1.6,1.4c-0.4,0.6-0.7,1.3-0.9,2c-0.2,0.8-0.3,1.6-0.3,2.4c0,0.9,0.1,1.8,0.4,2.7c0.2,0.7,0.6,1.3,1.1,1.8
			c0.5,0.4,1,0.8,1.6,0.9c0.6,0.2,1.3,0.3,2,0.3c0.4,0,0.8,0,1.2-0.1c0.4,0,0.8-0.1,1.2-0.3v-11.4c-0.8-0.2-1.6-0.3-2.5-0.3
			C105,114.8,104.2,114.9,103.5,115.3L103.5,115.3z M120,130.9v-15.8h-2.6c-0.1-0.3-0.1-0.7-0.2-1.1c0-0.4-0.1-0.7-0.1-1.1
			c0-0.7,0.1-1.4,0.2-2h7.9v19.9c-0.9,0.2-1.8,0.2-2.7,0.2C121.8,131.1,120.9,131,120,130.9z M63,130.9l0.8-18.8l-8.5,18.2l-8-18.5
			l0.5,19.1c-0.9,0.2-1.7,0.2-2.6,0.2c-0.9,0-1.8-0.1-2.8-0.2l0.1-27.7c1.1-0.2,2.1-0.2,3.2-0.2c1.1,0,2.2,0.1,3.2,0.2l6.9,15.9
			l7.1-15.9c1-0.2,1.9-0.2,2.9-0.2c1,0,2,0.1,3,0.2l-0.1,27.7c-1,0.1-2,0.2-3,0.2C64.9,131.1,63.9,131,63,130.9L63,130.9z
			 M120.6,107.8c-0.5,0-1-0.1-1.4-0.2c-0.2-0.9-0.2-1.7-0.2-2.6c0-0.9,0.1-1.7,0.2-2.6c0.4-0.1,0.9-0.1,1.4-0.2s1-0.1,1.4-0.1
			c0.4,0,0.9,0,1.4,0.1c0.5,0,1,0.1,1.4,0.2c0.1,0.4,0.1,0.9,0.2,1.3c0,0.4,0,0.9,0,1.3c0,0.4,0,0.8,0,1.3c0,0.4-0.1,0.9-0.2,1.3
			c-0.5,0.1-0.9,0.1-1.4,0.2c-0.5,0-1,0-1.4,0C121.6,107.8,121.1,107.8,120.6,107.8L120.6,107.8z"/>
		<path id="Path_101" class="st0" d="M125.9,24.2l-3.8,21.5l-16.8-14.1l-17.8,6.5L108,94.2l17.8-6.5l-7.5-20.5l16.7,14.1l3.8-21.6
			l7.5,20.5l17.8-6.5l-20.4-56.1L125.9,24.2z"/>
		<path id="Path_102" class="st4" d="M149.8,35.6l-26.6,26.6c-3.2,3.2-3,8.7,0.5,12.2s9,3.8,12.2,0.5l26.6-26.6
			c3.2-3.2,3-8.7-0.5-12.2C158.5,32.6,153,32.4,149.8,35.6z"/>
		<path id="Path_103" class="st3" d="M136.2,75.1c-3.3,3.3-9,3.1-12.6-0.5s-3.9-9.3-0.5-12.6l26.6-26.6c3.3-3.3,9-3.1,12.6,0.5
			s3.9,9.3,0.5,12.6L136.2,75.1z"/>
		
			<linearGradient id="Path_104_1_" gradientUnits="userSpaceOnUse" x1="-169.1822" y1="525.0341" x2="-168.3061" y2="525.9102" gradientTransform="matrix(42.7999 0 0 -42.801 7365.124 22546.0176)">
			<stop  offset="0" style="stop-color:#C8001E"/>
			<stop  offset="0.317" style="stop-color:#D95149"/>
			<stop  offset="1" style="stop-color:#D95149"/>
		</linearGradient>
		<path id="Path_104" class="st5" d="M135.6,74.6c-3,3-8.2,2.8-11.5-0.5s-3.6-8.5-0.5-11.5L150.2,36c3-3,8.2-2.8,11.5,0.5
			c3.3,3.3,3.6,8.5,0.5,11.5L135.6,74.6z"/>
		<g id="Group_134" transform="translate(88.235 33.899)">
			
				<linearGradient id="Path_105_1_" gradientUnits="userSpaceOnUse" x1="-257.4789" y1="491.5729" x2="-256.4789" y2="491.5729" gradientTransform="matrix(42.7963 0 0 -42.7995 11052.4043 21060.4766)">
				<stop  offset="0" style="stop-color:#C8001E"/>
				<stop  offset="0.317" style="stop-color:#D95149"/>
				<stop  offset="1" style="stop-color:#D95149"/>
			</linearGradient>
			<path id="Path_105" class="st6" d="M67.2,0c-2,0-3.8,0.7-5.2,2.1L35.4,28.7c-3,3-2.8,8.2,0.5,11.5s8.5,3.6,11.5,0.5l26.6-26.6
				c3-3,2.8-8.2-0.5-11.5C71.8,1,69.5,0,67.2,0L67.2,0"/>
		</g>
		
			<linearGradient id="Path_106_1_" gradientUnits="userSpaceOnUse" x1="-167.3322" y1="521.5523" x2="-166.3322" y2="521.5523" gradientTransform="matrix(28.2569 0 0 -28.2582 4864.8628 14785.6006)">
			<stop  offset="0" style="stop-color:#2B3B64"/>
			<stop  offset="1" style="stop-color:#00163A"/>
		</linearGradient>
		<path id="Path_106" class="st7" d="M149.8,35.6l-12.5,12.5c-1.7,1.7-0.3,6,3.2,9.5c3.5,3.5,7.8,5,9.5,3.2l12.5-12.5
			c3.2-3.2,3-8.7-0.5-12.2c-1.7-1.8-4.1-2.8-6.6-2.8C153.3,33.3,151.3,34.1,149.8,35.6"/>
		
			<linearGradient id="Path_107_1_" gradientUnits="userSpaceOnUse" x1="-168.77" y1="524.4995" x2="-167.77" y2="524.4995" gradientTransform="matrix(37.9558 0 0 -37.954 6528.5205 19960.9668)">
			<stop  offset="0" style="stop-color:#F1B5A8"/>
			<stop  offset="0.317" style="stop-color:#FFFFFF"/>
			<stop  offset="0.703" style="stop-color:#FFFFFF"/>
			<stop  offset="1" style="stop-color:#D1D5EC"/>
		</linearGradient>
		<path id="Path_107" class="st8" d="M152.2,37.4L125,64.6c-3,3-2.9,6.2-0.8,8.2c0.1,0.1,0.2,0.2,0.3,0.3c-1.4-1.7-1.4-4,1.4-6.7
			L154,38.3c2.8-2.8,5.1-2.7,6.7-1.4c-0.1-0.1-0.2-0.2-0.3-0.3c-0.9-0.9-2.1-1.5-3.4-1.5C155.2,35.2,153.4,36.1,152.2,37.4"/>
		
			<linearGradient id="Path_108_1_" gradientUnits="userSpaceOnUse" x1="-164.4751" y1="513.9101" x2="-163.4751" y2="513.9101" gradientTransform="matrix(18.741 0 0 -16.998 3226.0627 8788.3955)">
			<stop  offset="0" style="stop-color:#2B3B64"/>
			<stop  offset="1" style="stop-color:#55618A"/>
		</linearGradient>
		<path id="Path_108" class="st9" d="M143.6,60.1c1,0.6,2,1.1,3.1,1.4l15.6-15.6l-0.1-0.1c-1.1-0.3-2.1-0.7-3-1.3L143.6,60.1z"/>
		<path id="Path_109" class="st10" d="M129.8,74c1,0.6,2.2,1,3.4,1.1l13.6-13.6c-1.1-0.3-2.2-0.7-3.1-1.4L129.8,74z"/>
		<path id="Path_110" class="st3" d="M149.8,35.6l-12.5,12.5c-1.7,1.7-0.3,6,3.2,9.5s7.8,5,9.5,3.2l12.5-12.5
			c3.2-3.2,3-8.7-0.5-12.2C158.5,32.6,153,32.4,149.8,35.6 M162.2,48l-12.5,12.5c-1.5,1.5-5.5,0-8.8-3.2s-4.7-7.3-3.2-8.8L150.2,36
			c3-3,8.2-2.8,11.5,0.5C165,39.9,165.2,45,162.2,48"/>
		<g id="Group_136" transform="translate(32.089 24.017)">
			<path id="Path_111" class="st3" d="M110.8,62.6c-17.3,0-31.3-14-31.3-31.3C79.5,14,93.5,0,110.8,0s31.3,14,31.3,31.3c0,0,0,0,0,0
				C142.1,48.5,128.1,62.5,110.8,62.6 M110.8,2.1c-16.1,0-29.2,13.1-29.2,29.2s13.1,29.2,29.2,29.2c16.1,0,29.2-13.1,29.2-29.2
				C140,15.2,126.9,2.1,110.8,2.1"/>
			<g id="Group_135" transform="translate(57.636 11.371)">
				<path id="Path_112" class="st3" d="M34.5,23.8c-0.5,0-0.9-0.4-1-0.9C31.8,12,39.3,1.9,50.2,0.2c2-0.3,4-0.3,6,0
					c0.6,0.1,1,0.6,0.9,1.2s-0.6,1-1.2,0.9l0,0C46.1,0.8,37,7.5,35.5,17.2c-0.3,1.8-0.3,3.6,0,5.4c0.1,0.6-0.3,1.1-0.9,1.2
					C34.6,23.8,34.6,23.8,34.5,23.8"/>
				<path id="Path_113" class="st3" d="M53.2,39.8c-1,0-2-0.1-3-0.2c-0.6-0.1-1-0.6-0.9-1.2s0.6-1,1.2-0.9
					c9.7,1.5,18.8-5.2,20.3-14.9c0.3-1.8,0.3-3.6,0-5.4c-0.1-0.6,0.3-1.1,0.8-1.2c0.6-0.1,1.1,0.3,1.2,0.8c0,0,0,0,0,0.1
					c1.7,10.9-5.8,21-16.7,22.7C55.2,39.7,54.2,39.8,53.2,39.8"/>
			</g>
			<path id="Path_114" class="st3" d="M34.4,52.6c-0.7,0-1.2-0.5-1.2-1.2c0-0.3,0.1-0.6,0.3-0.8c0.2-0.2,4.3-4.6,8.2-6
				c2.3-0.7,4.8-0.9,7.2-0.6c2.5,0.3,5.1,0.1,7.5-0.6c2.6-1,4.6-2.8,6.7-4.7c2.2-2,4.5-4.2,7.6-5.3c2.9-0.9,6-1.2,9.1-0.9
				c0.6,0.1,1.1,0.7,1,1.4c-0.1,0.6-0.7,1.1-1.3,1c-2.7-0.3-5.4-0.1-8,0.7c-2.7,1-4.7,2.9-6.8,4.8c-2.2,2-4.4,4.1-7.5,5.2
				c-2.7,0.9-5.6,1.1-8.5,0.8c-2.1-0.3-4.2-0.1-6.3,0.5c-3.3,1.2-7.2,5.3-7.3,5.4C35.1,52.5,34.8,52.6,34.4,52.6"/>
			<path id="Path_115" class="st3" d="M36.7,58.9c-0.7,0-1.2-0.5-1.2-1.2c0-0.3,0.1-0.6,0.3-0.8c0.2-0.2,4.3-4.6,8.2-6
				c2.3-0.7,4.8-0.9,7.2-0.6c2.5,0.3,5.1,0.1,7.5-0.6c2.6-1,4.6-2.8,6.7-4.7c2.2-2,4.5-4.2,7.6-5.3c2.7-0.9,5.5-1.2,8.4-0.9
				c0.7,0.1,1.1,0.6,1.1,1.3s-0.6,1.1-1.3,1.1c-2.5-0.2-5,0-7.3,0.8c-2.7,1-4.7,2.9-6.8,4.8c-2.2,2-4.4,4.1-7.5,5.2
				c-2.7,0.9-5.6,1.1-8.5,0.8c-2.1-0.3-4.2-0.1-6.3,0.4c-3.3,1.2-7.2,5.3-7.3,5.4C37.4,58.7,37,58.9,36.7,58.9"/>
			<path id="Path_116" class="st3" d="M39,65.1c-0.7,0-1.2-0.5-1.2-1.2c0-0.3,0.1-0.6,0.3-0.8c0.2-0.2,4.3-4.6,8.2-6
				c2.3-0.7,4.8-0.9,7.2-0.6c2.5,0.3,5.1,0.1,7.5-0.6c2.6-1,4.6-2.8,6.7-4.7c2.2-2,4.5-4.2,7.6-5.3c2.9-0.9,6-1.2,9.1-0.9
				c0.6,0.1,1.1,0.7,1,1.4c-0.1,0.6-0.7,1.1-1.3,1c-2.7-0.3-5.4-0.1-8,0.7c-2.7,1-4.7,2.9-6.8,4.8c-2.2,2-4.4,4.1-7.5,5.2
				c-2.7,0.9-5.6,1.1-8.5,0.8c-2.1-0.3-4.2-0.1-6.3,0.5c-3.3,1.2-7.2,5.3-7.3,5.4C39.6,65,39.3,65.1,39,65.1"/>
		</g>
		<path id="Union_1" class="st3" d="M163.6,118.9h-30c-0.9,0-1.7-0.7-1.8-1.7c0-0.9,0.7-1.7,1.7-1.8c0,0,0.1,0,0.1,0h26.1
			c0.9,0,1.7-0.8,1.7-1.7s-0.8-1.7-1.7-1.7l0,0h-15.5c-0.9,0-1.7-0.8-1.7-1.7c0-0.9,0.8-1.7,1.7-1.7h16.4c0.9,0,1.7-0.8,1.7-1.7
			c0-0.9-0.8-1.7-1.7-1.7l0,0h-24.3c-0.9,0-1.7-0.8-1.7-1.7c0-0.9,0.8-1.7,1.7-1.7h18.6c0.9,0,1.7-0.8,1.7-1.7s-0.8-1.7-1.7-1.7l0,0
			h-14.8c-0.9,0-1.7-0.8-1.7-1.7c0-0.9,0.8-1.7,1.7-1.7h39.7c0.9,0,1.7,0.8,1.7,1.7v20.5c0,0.9-0.8,1.7-1.7,1.7H163.6z M135.7,112.1
			c-0.9,0-1.7-0.8-1.7-1.7s0.8-1.7,1.7-1.7c0,0,0,0,0,0h2.2c0.9,0,1.7,0.8,1.7,1.7s-0.8,1.7-1.7,1.7c0,0,0,0,0,0H135.7z M131.6,98.4
			c-0.9,0-1.7-0.8-1.7-1.7s0.8-1.7,1.7-1.7h2.4c0.9,0,1.7,0.8,1.7,1.7s-0.8,1.7-1.7,1.7H131.6z"/>
		<path id="Path_120" class="st3" d="M157.4,126.1c-3.7,0-6.7,3-6.7,6.7c0,3.7,3,6.7,6.7,6.7c3.7,0,6.7-3,6.7-6.7
			C164.1,129.1,161.1,126.1,157.4,126.1L157.4,126.1 M157.4,136.3c-1.9,0-3.5-1.6-3.5-3.5c0-1.9,1.6-3.5,3.5-3.5
			c1.9,0,3.5,1.6,3.5,3.5C160.9,134.7,159.3,136.3,157.4,136.3C157.4,136.3,157.4,136.3,157.4,136.3"/>
		<path id="Path_121" class="st3" d="M189.5,126.1c-3.7,0-6.7,3-6.7,6.7c0,3.7,3,6.7,6.7,6.7s6.7-3,6.7-6.7c0,0,0,0,0,0
			C196.2,129.1,193.2,126.1,189.5,126.1C189.5,126.1,189.5,126.1,189.5,126.1 M189.5,136.3c-1.9,0-3.5-1.6-3.5-3.5
			c0-1.9,1.6-3.5,3.5-3.5c1.9,0,3.5,1.6,3.5,3.5C193,134.7,191.4,136.3,189.5,136.3L189.5,136.3"/>
		<path id="Path_122" class="st0" d="M203,113l-8.5-10.3c-1.2-1.3-2.9-2.1-4.7-2.2H187c-1.6,0-2.8,1.3-2.9,2.9v15
			c0,1.6-1.3,2.8-2.9,2.9h-40.1c-1.6,0-2.8,1.3-2.9,2.9v4.4c0,1.6,1.3,2.9,2.9,2.9h7.4c0.9-4.9,5.5-8.1,10.4-7.2
			c3.7,0.7,6.5,3.5,7.2,7.2h14.5c0.9-4.9,5.5-8.1,10.4-7.2c3.7,0.7,6.5,3.5,7.2,7.2h3.6c1.6,0,2.8-1.3,2.9-2.9V118
			C204.7,116.2,204,114.5,203,113 M198.8,116.4h-8.7c-0.7,0-1.4-0.6-1.4-1.4v-8.6c0-0.7,0.3-1.4,0.6-1.4c0.5,0,1,0.1,1.5,0.4
			c0.5,0.4,1,0.9,1.4,1.4l7.1,8.6C199.8,115.9,199.5,116.4,198.8,116.4"/>
	</g>
	<g class="st11">
		<path class="st3" d="M203.2,3304.3c0.5-0.1,1.2-0.1,1.8-0.2c0.7-0.1,1.3-0.1,2-0.1c0.8,0,1.6,0.1,2.4,0.2c0.8,0.2,1.4,0.4,2,0.8
			s1.1,0.9,1.4,1.5c0.4,0.6,0.5,1.4,0.5,2.4c0,1.2-0.2,2.2-0.6,3.1s-0.9,1.7-1.6,2.3c-0.7,0.6-1.5,1.1-2.5,1.4c-1,0.3-2,0.5-3.1,0.5
			c-0.7,0-1.3,0-1.7-0.1l-1.2,6.8c-0.5,0.1-0.9,0.1-1.4,0.1s-0.9,0-1.3-0.1L203.2,3304.3z M204.2,3313.9c0.2,0,0.5,0.1,0.7,0.1
			s0.5,0,0.8,0c0.7,0,1.3-0.1,1.9-0.3s1.1-0.5,1.5-0.8c0.4-0.4,0.8-0.9,1-1.5c0.2-0.6,0.4-1.3,0.4-2.1c0-1.2-0.3-2-1-2.4
			c-0.7-0.4-1.6-0.6-2.7-0.6c-0.2,0-0.5,0-0.7,0c-0.2,0-0.5,0-0.7,0.1L204.2,3313.9z"/>
		<path class="st3" d="M225.6,3317.3c-0.2,1-0.3,1.9-0.5,2.7c-0.1,0.7-0.2,1.4-0.2,2c0,0.2,0,0.4,0,0.5c0,0.1,0,0.3,0.1,0.5
			c-0.2,0-0.4,0.1-0.6,0.1c-0.2,0-0.4,0-0.6,0c-0.2,0-0.4,0-0.6,0s-0.4,0-0.6-0.1c0-0.2-0.1-0.4-0.1-0.6c0-0.2,0-0.4,0-0.7
			c0-0.2,0-0.5,0.1-0.8c0-0.3,0.1-0.6,0.1-0.9c-0.2,0.4-0.4,0.8-0.8,1.2c-0.3,0.4-0.7,0.7-1.1,1.1c-0.4,0.3-0.9,0.6-1.4,0.8
			c-0.5,0.2-1.1,0.3-1.7,0.3c-1.1,0-2-0.4-2.6-1.1c-0.6-0.8-0.9-1.8-0.9-3.1c0-1.2,0.2-2.4,0.6-3.6c0.4-1.2,0.9-2.2,1.7-3.1
			c0.7-0.9,1.7-1.6,2.8-2.2c1.1-0.6,2.4-0.8,3.9-0.8c0.6,0,1.3,0,1.9,0.1c0.6,0.1,1.2,0.2,1.7,0.4L225.6,3317.3z M224.1,3311.6
			c-0.2-0.1-0.4-0.1-0.6-0.1c-0.2,0-0.5,0-0.8,0c-0.9,0-1.6,0.2-2.3,0.6c-0.7,0.4-1.3,0.9-1.8,1.6s-0.9,1.4-1.1,2.3
			c-0.3,0.8-0.4,1.7-0.4,2.6c0,0.8,0.1,1.5,0.4,1.9c0.3,0.5,0.7,0.7,1.3,0.7c0.5,0,1.1-0.2,1.6-0.5c0.5-0.3,1-0.8,1.4-1.4
			s0.8-1.3,1.1-2.2c0.3-0.8,0.5-1.7,0.7-2.6L224.1,3311.6z"/>
		<path class="st3" d="M230.1,3309.7c0.2,0,0.4-0.1,0.7-0.1c0.2,0,0.5,0,0.7,0c0.3,0,0.5,0,0.7,0c0.2,0,0.5,0,0.7,0.1l1.5,10.7
			l3.4-6.7c0.4-0.8,0.7-1.6,1-2.2s0.4-1.2,0.4-1.6v-0.2c0.2,0,0.5-0.1,0.7-0.1c0.2,0,0.5,0,0.7,0c0.3,0,0.5,0,0.8,0
			c0.3,0,0.5,0,0.7,0.1v0.1c0,0.3,0,0.6-0.1,0.9c-0.1,0.3-0.3,0.7-0.5,1.2c-1,1.9-2,3.8-3,5.6c-1,1.8-2.1,3.7-3.1,5.6
			c-0.5,0.1-0.9,0.1-1.4,0.1c-0.2,0-0.4,0-0.7,0c-0.3,0-0.5,0-0.7-0.1L230.1,3309.7z"/>
		<path class="st3" d="M246.2,3317.7c0.1,1.2,0.3,2,0.9,2.6c0.5,0.6,1.4,0.9,2.5,0.9c0.7,0,1.4-0.1,2-0.2c0.6-0.2,1.2-0.3,1.7-0.5
			c0.2,0.3,0.3,0.6,0.3,0.9c0.1,0.4,0.1,0.7,0.1,1.1c-0.3,0.1-0.6,0.2-0.9,0.3c-0.4,0.1-0.8,0.2-1.2,0.3c-0.4,0.1-0.8,0.1-1.2,0.2
			c-0.4,0-0.8,0.1-1.1,0.1c-1,0-1.9-0.1-2.6-0.4c-0.7-0.3-1.3-0.6-1.7-1.1s-0.8-1-1-1.7c-0.2-0.6-0.3-1.4-0.3-2.1
			c0-1.1,0.2-2.1,0.5-3.1c0.4-1,0.9-2,1.5-2.8c0.7-0.8,1.5-1.5,2.4-2c0.9-0.5,2-0.8,3.1-0.8s2,0.3,2.7,0.8c0.7,0.6,1,1.3,1,2.2
			c0,0.8-0.2,1.4-0.6,2c-0.4,0.6-0.9,1-1.5,1.4c-0.7,0.4-1.4,0.7-2.3,1c-0.9,0.3-1.9,0.5-2.9,0.6L246.2,3317.7z M247.8,3315.5
			c0.9-0.2,1.6-0.3,2.2-0.5c0.6-0.2,1-0.4,1.4-0.6c0.3-0.2,0.6-0.5,0.7-0.7c0.1-0.3,0.2-0.5,0.2-0.9c0-0.4-0.1-0.7-0.4-1
			c-0.3-0.3-0.7-0.4-1.2-0.4c-0.6,0-1.1,0.1-1.5,0.4c-0.5,0.3-0.9,0.6-1.3,1s-0.7,0.9-0.9,1.4c-0.3,0.5-0.5,1.1-0.6,1.6
			L247.8,3315.5z"/>
		<path class="st3" d="M266.2,3311.7h-2.1c0-0.3,0-0.7,0.1-1c0.1-0.3,0.1-0.7,0.3-1.1h2.1c0.1-0.5,0.2-0.9,0.2-1.4
			c0.1-0.5,0.1-1,0.1-1.5v-0.4c0.3-0.2,0.8-0.3,1.2-0.4c0.5-0.1,0.9-0.1,1.2-0.1c0,0.2,0,0.3,0,0.5c0,0.2,0,0.3,0,0.5
			c0,0.5-0.1,1.2-0.2,2l-0.2,0.8h3.4c0,0.4,0,0.7-0.1,1.1c-0.1,0.3-0.1,0.7-0.3,1h-3.3l-1,5.6c-0.1,0.4-0.2,0.8-0.2,1.2
			c-0.1,0.4-0.1,0.8-0.1,1.2c0,0.5,0.1,0.9,0.4,1.1c0.3,0.2,0.6,0.3,1.1,0.3c0.3,0,0.6,0,0.8-0.1c0.2,0,0.5-0.1,0.7-0.2
			c0.1,0.2,0.1,0.4,0.1,0.6c0,0.2,0.1,0.4,0.1,0.7c0,0.1,0,0.2,0,0.4c0,0.1,0,0.3,0,0.4c-0.2,0.1-0.5,0.1-0.9,0.2
			c-0.4,0.1-0.8,0.1-1.2,0.1c-0.6,0-1.1,0-1.5-0.1s-0.9-0.2-1.2-0.4c-0.3-0.2-0.6-0.5-0.8-0.9c-0.2-0.4-0.3-0.9-0.3-1.5
			c0-0.3,0-0.7,0.1-1.1c0.1-0.4,0.1-0.8,0.2-1.2L266.2,3311.7z"/>
		<path class="st3" d="M276.3,3309.3c0.2-1,0.3-1.8,0.4-2.5s0.2-1.3,0.2-1.9c0-0.2,0-0.4,0-0.5c0-0.1,0-0.3,0-0.5
			c0.2,0,0.4-0.1,0.7-0.1c0.3,0,0.5,0,0.7,0c0.2,0,0.4,0,0.6,0c0.2,0,0.4,0,0.6,0.1c0.1,0.3,0.1,0.6,0.1,1c0,0.2,0,0.4,0,0.7
			c0,0.3-0.1,0.6-0.1,0.8s-0.1,0.6-0.1,0.9c-0.1,0.3-0.1,0.6-0.2,0.9c-0.1,0.6-0.2,1.2-0.3,1.8s-0.2,1.2-0.3,1.8
			c0.5-0.6,1.1-1.2,1.9-1.7s1.6-0.7,2.6-0.7c1.1,0,1.9,0.3,2.5,0.8s0.9,1.4,0.9,2.6c0,0.3,0,0.5-0.1,0.9c0,0.3-0.1,0.6-0.1,0.9
			l-1.5,8.4c-0.2,0-0.4,0.1-0.7,0.1c-0.3,0-0.5,0-0.7,0c-0.2,0-0.4,0-0.6,0c-0.2,0-0.4,0-0.6-0.1c0.2-1.4,0.5-2.7,0.7-4
			s0.5-2.7,0.7-4c0-0.3,0.1-0.5,0.1-0.8s0.1-0.5,0.1-0.7c0-0.7-0.2-1.1-0.5-1.5c-0.4-0.3-0.8-0.5-1.4-0.5c-0.4,0-0.8,0.1-1.2,0.3
			c-0.4,0.2-0.8,0.5-1.2,0.9c-0.4,0.4-0.7,1-1,1.7c-0.3,0.7-0.6,1.6-0.8,2.7c-0.2,1-0.4,2-0.5,2.9c-0.2,1-0.3,1.9-0.5,2.9
			c-0.2,0-0.5,0.1-0.8,0.1c-0.3,0-0.5,0-0.8,0c-0.1,0-0.2,0-0.5,0c-0.2,0-0.4,0-0.6-0.1L276.3,3309.3z"/>
		<path class="st3" d="M292.1,3317.7c0.1,1.2,0.3,2,0.9,2.6c0.5,0.6,1.4,0.9,2.5,0.9c0.7,0,1.4-0.1,2-0.2c0.6-0.2,1.2-0.3,1.7-0.5
			c0.2,0.3,0.3,0.6,0.3,0.9c0.1,0.4,0.1,0.7,0.1,1.1c-0.3,0.1-0.6,0.2-0.9,0.3c-0.4,0.1-0.8,0.2-1.2,0.3c-0.4,0.1-0.8,0.1-1.2,0.2
			c-0.4,0-0.8,0.1-1.1,0.1c-1,0-1.9-0.1-2.6-0.4c-0.7-0.3-1.3-0.6-1.7-1.1s-0.8-1-1-1.7c-0.2-0.6-0.3-1.4-0.3-2.1
			c0-1.1,0.2-2.1,0.5-3.1c0.4-1,0.9-2,1.5-2.8c0.7-0.8,1.5-1.5,2.4-2c0.9-0.5,2-0.8,3.1-0.8s2,0.3,2.7,0.8c0.7,0.6,1,1.3,1,2.2
			c0,0.8-0.2,1.4-0.6,2c-0.4,0.6-0.9,1-1.5,1.4c-0.7,0.4-1.4,0.7-2.3,1c-0.9,0.3-1.9,0.5-2.9,0.6L292.1,3317.7z M293.8,3315.5
			c0.9-0.2,1.6-0.3,2.2-0.5c0.6-0.2,1-0.4,1.4-0.6c0.3-0.2,0.6-0.5,0.7-0.7c0.1-0.3,0.2-0.5,0.2-0.9c0-0.4-0.1-0.7-0.4-1
			c-0.3-0.3-0.7-0.4-1.2-0.4c-0.6,0-1.1,0.1-1.5,0.4c-0.5,0.3-0.9,0.6-1.3,1s-0.7,0.9-0.9,1.4c-0.3,0.5-0.5,1.1-0.6,1.6
			L293.8,3315.5z"/>
		<path class="st3" d="M310.6,3309.7c0.2,0,0.5-0.1,0.7-0.1c0.2,0,0.5,0,0.7,0c0.5,0,1,0,1.4,0.1l1,10.3l4.2-10.3
			c0.2,0,0.4-0.1,0.6-0.1c0.2,0,0.4,0,0.6,0c0.2,0,0.4,0,0.7,0c0.2,0,0.4,0,0.6,0.1l1.3,10.4l3.2-7.9c0.2-0.5,0.4-0.9,0.4-1.3
			c0.1-0.4,0.1-0.7,0.1-0.9v-0.2c0.2,0,0.4-0.1,0.6-0.1c0.2,0,0.4,0,0.7,0c0.6,0,1,0,1.4,0.1v0.1c0,0.4-0.1,0.8-0.2,1.2
			c-0.1,0.4-0.4,1-0.7,1.6l-4.8,10.4c-0.2,0-0.5,0.1-0.7,0.1c-0.3,0-0.5,0-0.7,0c-0.2,0-0.4,0-0.6,0c-0.2,0-0.4,0-0.6-0.1l-1.3-9.6
			l-4,9.6c-0.2,0-0.5,0.1-0.7,0.1c-0.3,0-0.5,0-0.7,0c-0.2,0-0.4,0-0.7,0c-0.2,0-0.4,0-0.6-0.1L310.6,3309.7z"/>
		<path class="st3" d="M341.5,3317.3c-0.2,1-0.3,1.9-0.5,2.7c-0.1,0.7-0.2,1.4-0.2,2c0,0.2,0,0.4,0,0.5c0,0.1,0,0.3,0.1,0.5
			c-0.2,0-0.4,0.1-0.6,0.1c-0.2,0-0.4,0-0.6,0c-0.2,0-0.4,0-0.6,0s-0.4,0-0.6-0.1c0-0.2-0.1-0.4-0.1-0.6c0-0.2,0-0.4,0-0.7
			c0-0.2,0-0.5,0.1-0.8c0-0.3,0.1-0.6,0.1-0.9c-0.2,0.4-0.4,0.8-0.8,1.2c-0.3,0.4-0.7,0.7-1.1,1.1c-0.4,0.3-0.9,0.6-1.4,0.8
			c-0.5,0.2-1.1,0.3-1.7,0.3c-1.1,0-2-0.4-2.6-1.1c-0.6-0.8-0.9-1.8-0.9-3.1c0-1.2,0.2-2.4,0.6-3.6c0.4-1.2,0.9-2.2,1.7-3.1
			c0.7-0.9,1.7-1.6,2.8-2.2c1.1-0.6,2.4-0.8,3.9-0.8c0.6,0,1.3,0,1.9,0.1c0.6,0.1,1.2,0.2,1.7,0.4L341.5,3317.3z M340,3311.6
			c-0.2-0.1-0.4-0.1-0.6-0.1c-0.2,0-0.5,0-0.8,0c-0.9,0-1.6,0.2-2.3,0.6c-0.7,0.4-1.3,0.9-1.8,1.6s-0.9,1.4-1.1,2.3
			c-0.3,0.8-0.4,1.7-0.4,2.6c0,0.8,0.1,1.5,0.4,1.9c0.3,0.5,0.7,0.7,1.3,0.7c0.5,0,1.1-0.2,1.6-0.5c0.5-0.3,1-0.8,1.4-1.4
			s0.8-1.3,1.1-2.2c0.3-0.8,0.5-1.7,0.7-2.6L340,3311.6z"/>
		<path class="st3" d="M350.1,3321.7c0.6-1.2,1-2.3,1.5-3.3c0.4-1,0.8-1.9,1.2-2.7s0.7-1.6,1-2.3c0.3-0.7,0.5-1.4,0.8-2
			c0.1-0.3,0.2-0.5,0.2-0.8c0.1-0.3,0.1-0.5,0.1-0.6c0-0.1,0-0.2,0-0.2c0-0.1,0-0.1,0-0.2c0.3-0.1,0.7-0.1,1.1-0.1h1.6
			c0,0.1,0,0.1,0,0.2s0,0.1,0,0.2c0,0.4-0.1,0.9-0.3,1.4c-0.2,0.5-0.4,1-0.6,1.5c-0.8,1.7-1.6,3.5-2.5,5.4s-1.9,4-3,6.4
			c-0.5,1-1,1.8-1.4,2.5c-0.5,0.6-0.9,1.1-1.3,1.5c-0.4,0.3-0.9,0.6-1.3,0.7c-0.5,0.1-0.9,0.2-1.5,0.2c-0.6,0-1.2-0.1-1.8-0.3
			c0-0.4,0.1-0.7,0.2-1.1c0.1-0.3,0.2-0.6,0.4-0.9c0.2,0.1,0.3,0.1,0.6,0.1s0.4,0.1,0.6,0.1c0.3,0,0.5,0,0.8-0.1
			c0.3-0.1,0.6-0.3,0.9-0.6c0.3-0.3,0.6-0.7,1-1.3c0.3-0.6,0.7-1.4,1.1-2.3c-0.1,0-0.3,0-0.4,0c-0.2,0-0.3,0-0.5,0
			c-0.1,0-0.3,0-0.4,0s-0.3,0-0.4,0c-0.3-2.2-0.6-4.4-0.9-6.7s-0.6-4.4-0.9-6.7c0.2,0,0.5-0.1,0.7-0.1c0.2,0,0.4,0,0.7,0
			c0.2,0,0.5,0,0.7,0c0.2,0,0.5,0,0.7,0.1L350.1,3321.7z"/>
		<path class="st3" d="M368.3,3311.7h-2.1c0-0.3,0-0.7,0.1-1c0.1-0.3,0.1-0.7,0.3-1.1h2.1c0.1-0.5,0.2-0.9,0.2-1.4
			c0.1-0.5,0.1-1,0.1-1.5v-0.4c0.3-0.2,0.8-0.3,1.2-0.4s0.9-0.1,1.2-0.1c0,0.2,0,0.3,0,0.5c0,0.2,0,0.3,0,0.5c0,0.5-0.1,1.2-0.2,2
			l-0.2,0.8h3.4c0,0.4,0,0.7-0.1,1.1c-0.1,0.3-0.1,0.7-0.3,1h-3.3l-1,5.6c-0.1,0.4-0.2,0.8-0.2,1.2c-0.1,0.4-0.1,0.8-0.1,1.2
			c0,0.5,0.1,0.9,0.4,1.1s0.6,0.3,1.1,0.3c0.3,0,0.6,0,0.8-0.1c0.2,0,0.5-0.1,0.7-0.2c0.1,0.2,0.1,0.4,0.1,0.6s0.1,0.4,0.1,0.7
			c0,0.1,0,0.2,0,0.4c0,0.1,0,0.3,0,0.4c-0.2,0.1-0.5,0.1-0.9,0.2c-0.4,0.1-0.8,0.1-1.2,0.1c-0.6,0-1.1,0-1.5-0.1
			c-0.5-0.1-0.9-0.2-1.2-0.4c-0.3-0.2-0.6-0.5-0.8-0.9c-0.2-0.4-0.3-0.9-0.3-1.5c0-0.3,0-0.7,0.1-1.1c0.1-0.4,0.1-0.8,0.2-1.2
			L368.3,3311.7z"/>
		<path class="st3" d="M381,3323.3c-1.6,0-2.8-0.4-3.6-1.3c-0.8-0.9-1.2-2.2-1.2-3.8c0-1,0.1-2,0.4-3c0.3-1,0.8-2,1.4-2.9
			c0.6-0.9,1.4-1.6,2.3-2.1c0.9-0.6,2-0.8,3.3-0.8c1.6,0,2.9,0.5,3.7,1.4c0.8,0.9,1.2,2.2,1.2,3.8c0,1-0.1,2-0.4,3s-0.7,2-1.4,2.8
			c-0.6,0.9-1.4,1.6-2.3,2.1C383.3,3323,382.2,3323.3,381,3323.3z M381.2,3321.3c0.8,0,1.5-0.2,2.1-0.7c0.6-0.4,1.1-1,1.4-1.7
			s0.6-1.4,0.8-2.2c0.2-0.8,0.3-1.5,0.3-2.2c0-1-0.2-1.7-0.7-2.3c-0.4-0.5-1.1-0.8-1.9-0.8s-1.5,0.2-2.1,0.7c-0.6,0.5-1,1-1.4,1.7
			s-0.6,1.4-0.8,2.2c-0.2,0.8-0.2,1.5-0.2,2.2c0,1,0.2,1.7,0.6,2.3C379.8,3321,380.4,3321.3,381.2,3321.3z"/>
		<path class="st3" d="M400.3,3309.3c0.2-1,0.3-1.8,0.4-2.5c0.1-0.7,0.2-1.3,0.2-1.9c0-0.2,0-0.4,0-0.5c0-0.1,0-0.3,0-0.5
			c0.2,0,0.4-0.1,0.7-0.1c0.3,0,0.5,0,0.7,0c0.2,0,0.4,0,0.6,0c0.2,0,0.4,0,0.6,0.1c0.1,0.3,0.1,0.6,0.1,1c0,0.2,0,0.4,0,0.7
			c0,0.3-0.1,0.6-0.1,0.8c0,0.3-0.1,0.6-0.1,0.9c-0.1,0.3-0.1,0.6-0.2,0.9c-0.1,0.6-0.2,1.2-0.3,1.8c-0.1,0.6-0.2,1.2-0.3,1.8
			c0.5-0.6,1.1-1.2,1.9-1.7s1.6-0.7,2.6-0.7c1.1,0,1.9,0.3,2.5,0.8c0.6,0.6,0.9,1.4,0.9,2.6c0,0.3,0,0.5-0.1,0.9
			c0,0.3-0.1,0.6-0.1,0.9l-1.5,8.4c-0.2,0-0.4,0.1-0.7,0.1c-0.3,0-0.5,0-0.7,0c-0.2,0-0.4,0-0.6,0c-0.2,0-0.4,0-0.6-0.1
			c0.2-1.4,0.5-2.7,0.7-4c0.2-1.3,0.5-2.7,0.7-4c0-0.3,0.1-0.5,0.1-0.8c0-0.3,0.1-0.5,0.1-0.7c0-0.7-0.2-1.1-0.5-1.5
			c-0.4-0.3-0.8-0.5-1.4-0.5c-0.4,0-0.8,0.1-1.2,0.3c-0.4,0.2-0.8,0.5-1.2,0.9c-0.4,0.4-0.7,1-1,1.7c-0.3,0.7-0.6,1.6-0.8,2.7
			c-0.2,1-0.4,2-0.5,2.9s-0.3,1.9-0.5,2.9c-0.2,0-0.5,0.1-0.8,0.1c-0.3,0-0.5,0-0.8,0c-0.1,0-0.2,0-0.5,0c-0.2,0-0.4,0-0.6-0.1
			L400.3,3309.3z"/>
		<path class="st3" d="M416.2,3317.7c0.1,1.2,0.3,2,0.9,2.6c0.5,0.6,1.4,0.9,2.5,0.9c0.7,0,1.4-0.1,2-0.2c0.6-0.2,1.2-0.3,1.7-0.5
			c0.2,0.3,0.3,0.6,0.3,0.9c0.1,0.4,0.1,0.7,0.1,1.1c-0.3,0.1-0.6,0.2-0.9,0.3c-0.4,0.1-0.8,0.2-1.2,0.3c-0.4,0.1-0.8,0.1-1.2,0.2
			c-0.4,0-0.8,0.1-1.1,0.1c-1,0-1.9-0.1-2.6-0.4s-1.3-0.6-1.7-1.1c-0.4-0.5-0.8-1-1-1.7c-0.2-0.6-0.3-1.4-0.3-2.1
			c0-1.1,0.2-2.1,0.5-3.1c0.4-1,0.9-2,1.5-2.8s1.5-1.5,2.4-2c0.9-0.5,2-0.8,3.1-0.8c1.1,0,2,0.3,2.7,0.8s1,1.3,1,2.2
			c0,0.8-0.2,1.4-0.6,2c-0.4,0.6-0.9,1-1.5,1.4c-0.7,0.4-1.4,0.7-2.3,1c-0.9,0.3-1.9,0.5-2.9,0.6L416.2,3317.7z M417.8,3315.5
			c0.9-0.2,1.6-0.3,2.2-0.5c0.6-0.2,1-0.4,1.4-0.6c0.3-0.2,0.6-0.5,0.7-0.7s0.2-0.5,0.2-0.9c0-0.4-0.1-0.7-0.4-1
			c-0.3-0.3-0.7-0.4-1.2-0.4c-0.6,0-1.1,0.1-1.5,0.4c-0.5,0.3-0.9,0.6-1.3,1c-0.4,0.4-0.7,0.9-0.9,1.4c-0.3,0.5-0.5,1.1-0.6,1.6
			L417.8,3315.5z"/>
		<path class="st3" d="M438.3,3317.3c-0.2,1-0.3,1.9-0.5,2.7c-0.1,0.7-0.2,1.4-0.2,2c0,0.2,0,0.4,0,0.5c0,0.1,0,0.3,0.1,0.5
			c-0.2,0-0.4,0.1-0.6,0.1s-0.4,0-0.6,0c-0.2,0-0.4,0-0.6,0s-0.4,0-0.6-0.1c0-0.2-0.1-0.4-0.1-0.6c0-0.2,0-0.4,0-0.7
			c0-0.2,0-0.5,0.1-0.8s0.1-0.6,0.1-0.9c-0.2,0.4-0.4,0.8-0.8,1.2c-0.3,0.4-0.7,0.7-1.1,1.1c-0.4,0.3-0.9,0.6-1.4,0.8
			c-0.5,0.2-1.1,0.3-1.7,0.3c-1.1,0-2-0.4-2.6-1.1c-0.6-0.8-0.9-1.8-0.9-3.1c0-1.2,0.2-2.4,0.6-3.6c0.4-1.2,0.9-2.2,1.7-3.1
			s1.7-1.6,2.8-2.2c1.1-0.6,2.4-0.8,3.9-0.8c0.6,0,1.3,0,1.9,0.1s1.2,0.2,1.7,0.4L438.3,3317.3z M436.8,3311.6
			c-0.2-0.1-0.4-0.1-0.7-0.1s-0.5,0-0.8,0c-0.9,0-1.6,0.2-2.3,0.6c-0.7,0.4-1.3,0.9-1.8,1.6s-0.9,1.4-1.1,2.3
			c-0.3,0.8-0.4,1.7-0.4,2.6c0,0.8,0.1,1.5,0.4,1.9c0.3,0.5,0.7,0.7,1.3,0.7c0.5,0,1.1-0.2,1.6-0.5s1-0.8,1.4-1.4s0.8-1.3,1.1-2.2
			c0.3-0.8,0.5-1.7,0.7-2.6L436.8,3311.6z"/>
		<path class="st3" d="M444.7,3309.3c0.2-1,0.3-1.8,0.4-2.5c0.1-0.7,0.2-1.3,0.2-1.9c0-0.2,0-0.4,0-0.5s0-0.3,0-0.5
			c0.2,0,0.4-0.1,0.7-0.1s0.5,0,0.7,0c0.2,0,0.4,0,0.6,0s0.4,0,0.6,0.1c0,0.2,0.1,0.3,0.1,0.5s0,0.3,0,0.5c0,0.2,0,0.4,0,0.7
			c0,0.3-0.1,0.6-0.1,0.8c0,0.3-0.1,0.6-0.1,0.9c-0.1,0.3-0.1,0.6-0.2,0.9l-2,11c-0.1,0.3-0.1,0.5-0.1,0.7c0,0.3,0,0.5,0.1,0.7
			s0.2,0.3,0.3,0.4c0.1,0.1,0.3,0.1,0.4,0.1s0.3,0,0.4,0c0.2,0,0.3,0,0.5-0.1c0.2,0,0.4-0.1,0.5-0.1c0.2,0.5,0.2,1,0.2,1.6
			c0,0.1,0,0.1,0,0.2c0,0.1,0,0.1,0,0.2c-0.3,0.1-0.6,0.2-0.9,0.2c-0.4,0-0.7,0.1-1.1,0.1c-0.5,0-0.9,0-1.2-0.1
			c-0.4-0.1-0.7-0.2-1-0.5c-0.3-0.2-0.5-0.5-0.6-0.9c-0.1-0.4-0.2-0.8-0.2-1.4c0-0.3,0-0.7,0.1-1s0.1-0.7,0.2-1.1L444.7,3309.3z"/>
		<path class="st3" d="M453.2,3311.7h-2.1c0-0.3,0-0.7,0.1-1c0.1-0.3,0.1-0.7,0.3-1.1h2.1c0.1-0.5,0.2-0.9,0.2-1.4
			c0.1-0.5,0.1-1,0.1-1.5v-0.4c0.3-0.2,0.8-0.3,1.2-0.4s0.9-0.1,1.2-0.1c0,0.2,0,0.3,0,0.5c0,0.2,0,0.3,0,0.5c0,0.5-0.1,1.2-0.2,2
			l-0.2,0.8h3.4c0,0.4,0,0.7-0.1,1.1c-0.1,0.3-0.1,0.7-0.3,1h-3.3l-1,5.6c-0.1,0.4-0.2,0.8-0.2,1.2c-0.1,0.4-0.1,0.8-0.1,1.2
			c0,0.5,0.1,0.9,0.4,1.1s0.6,0.3,1.1,0.3c0.3,0,0.6,0,0.8-0.1c0.2,0,0.5-0.1,0.7-0.2c0.1,0.2,0.1,0.4,0.1,0.6s0.1,0.4,0.1,0.7
			c0,0.1,0,0.2,0,0.4c0,0.1,0,0.3,0,0.4c-0.2,0.1-0.5,0.1-0.9,0.2c-0.4,0.1-0.8,0.1-1.2,0.1c-0.6,0-1.1,0-1.5-0.1
			c-0.5-0.1-0.9-0.2-1.2-0.4c-0.3-0.2-0.6-0.5-0.8-0.9c-0.2-0.4-0.3-0.9-0.3-1.5c0-0.3,0-0.7,0.1-1.1c0.1-0.4,0.1-0.8,0.2-1.2
			L453.2,3311.7z"/>
		<path class="st3" d="M463.2,3309.3c0.2-1,0.3-1.8,0.4-2.5c0.1-0.7,0.2-1.3,0.2-1.9c0-0.2,0-0.4,0-0.5s0-0.3,0-0.5
			c0.2,0,0.4-0.1,0.7-0.1s0.5,0,0.7,0c0.2,0,0.4,0,0.6,0s0.4,0,0.6,0.1c0.1,0.3,0.1,0.6,0.1,1c0,0.2,0,0.4,0,0.7
			c0,0.3-0.1,0.6-0.1,0.8c0,0.3-0.1,0.6-0.1,0.9c-0.1,0.3-0.1,0.6-0.2,0.9c-0.1,0.6-0.2,1.2-0.3,1.8c-0.1,0.6-0.2,1.2-0.3,1.8
			c0.5-0.6,1.1-1.2,1.9-1.7s1.6-0.7,2.6-0.7c1.1,0,1.9,0.3,2.5,0.8c0.6,0.6,0.9,1.4,0.9,2.6c0,0.3,0,0.5-0.1,0.9
			c0,0.3-0.1,0.6-0.1,0.9l-1.5,8.4c-0.2,0-0.4,0.1-0.7,0.1c-0.3,0-0.5,0-0.7,0s-0.4,0-0.6,0c-0.2,0-0.4,0-0.6-0.1
			c0.2-1.4,0.5-2.7,0.7-4c0.2-1.3,0.5-2.7,0.7-4c0-0.3,0.1-0.5,0.1-0.8c0-0.3,0.1-0.5,0.1-0.7c0-0.7-0.2-1.1-0.5-1.5
			c-0.4-0.3-0.8-0.5-1.4-0.5c-0.4,0-0.8,0.1-1.2,0.3c-0.4,0.2-0.8,0.5-1.2,0.9c-0.4,0.4-0.7,1-1,1.7c-0.3,0.7-0.6,1.6-0.8,2.7
			c-0.2,1-0.4,2-0.5,2.9c-0.2,1-0.3,1.9-0.5,2.9c-0.2,0-0.5,0.1-0.8,0.1c-0.3,0-0.5,0-0.8,0c-0.1,0-0.2,0-0.5,0
			c-0.2,0-0.4,0-0.6-0.1L463.2,3309.3z"/>
		<path class="st3" d="M485.2,3320.7c0.1,0.2,0.2,0.5,0.3,0.9s0.1,0.7,0.1,1.2c-0.5,0.2-1.1,0.4-1.7,0.5c-0.7,0.1-1.3,0.2-1.8,0.2
			c-1.9,0-3.3-0.5-4.2-1.4c-0.9-0.9-1.4-2.2-1.4-3.9c0-1,0.2-2.1,0.5-3.1s0.8-2,1.5-2.8s1.5-1.5,2.4-2c1-0.5,2.1-0.8,3.3-0.8
			c0.6,0,1.1,0.1,1.6,0.2c0.5,0.1,1,0.2,1.4,0.4c0,0.3-0.1,0.7-0.2,1.1c-0.1,0.4-0.3,0.7-0.5,1c-0.3-0.1-0.7-0.3-1.1-0.4
			c-0.4-0.1-0.8-0.1-1.3-0.1c-0.8,0-1.6,0.2-2.2,0.6c-0.6,0.4-1.1,0.9-1.6,1.5s-0.7,1.3-0.9,2c-0.2,0.7-0.3,1.5-0.3,2.2
			c0,1.2,0.3,2,0.9,2.6c0.6,0.6,1.4,0.8,2.4,0.8c0.5,0,0.9,0,1.3-0.1C484.3,3321,484.8,3320.9,485.2,3320.7z"/>
		<path class="st3" d="M500,3317.3c-0.2,1-0.3,1.9-0.5,2.7c-0.1,0.7-0.2,1.4-0.2,2c0,0.2,0,0.4,0,0.5c0,0.1,0,0.3,0.1,0.5
			c-0.2,0-0.4,0.1-0.6,0.1s-0.4,0-0.6,0c-0.2,0-0.4,0-0.6,0s-0.4,0-0.6-0.1c0-0.2-0.1-0.4-0.1-0.6c0-0.2,0-0.4,0-0.7
			c0-0.2,0-0.5,0.1-0.8s0.1-0.6,0.1-0.9c-0.2,0.4-0.4,0.8-0.8,1.2c-0.3,0.4-0.7,0.7-1.1,1.1c-0.4,0.3-0.9,0.6-1.4,0.8
			c-0.5,0.2-1.1,0.3-1.7,0.3c-1.1,0-2-0.4-2.6-1.1c-0.6-0.8-0.9-1.8-0.9-3.1c0-1.2,0.2-2.4,0.6-3.6c0.4-1.2,0.9-2.2,1.7-3.1
			s1.7-1.6,2.8-2.2c1.1-0.6,2.4-0.8,3.9-0.8c0.6,0,1.3,0,1.9,0.1s1.2,0.2,1.7,0.4L500,3317.3z M498.5,3311.6
			c-0.2-0.1-0.4-0.1-0.7-0.1s-0.5,0-0.8,0c-0.9,0-1.6,0.2-2.3,0.6c-0.7,0.4-1.3,0.9-1.8,1.6s-0.9,1.4-1.1,2.3
			c-0.3,0.8-0.4,1.7-0.4,2.6c0,0.8,0.1,1.5,0.4,1.9c0.3,0.5,0.7,0.7,1.3,0.7c0.5,0,1.1-0.2,1.6-0.5s1-0.8,1.4-1.4s0.8-1.3,1.1-2.2
			c0.3-0.8,0.5-1.7,0.7-2.6L498.5,3311.6z"/>
		<path class="st3" d="M504,3323c0.2-1.1,0.4-2.2,0.6-3.5c0.2-1.2,0.5-2.4,0.6-3.5c0.2-1.1,0.4-2.2,0.5-3.1c0.1-0.9,0.2-1.7,0.2-2.2
			c0-0.2,0-0.4,0-0.5s0-0.3-0.1-0.5c0.2,0,0.4-0.1,0.6-0.1c0.2,0,0.4,0,0.6,0c0.2,0,0.4,0,0.6,0s0.4,0,0.6,0.1
			c0,0.1,0.1,0.3,0.1,0.5c0,0.2,0,0.4,0,0.7c0,0.4,0,0.8-0.1,1.2c0.2-0.3,0.5-0.6,0.7-0.9s0.6-0.5,0.9-0.8c0.3-0.2,0.7-0.4,1.1-0.5
			c0.4-0.1,0.8-0.2,1.3-0.2c0.1,0,0.3,0,0.5,0s0.3,0,0.4,0.1c0,0.3,0,0.7-0.1,1.2s-0.2,0.8-0.4,1.1c-0.1,0-0.2,0-0.3-0.1
			c-0.1,0-0.3,0-0.4,0c-1.2,0-2.1,0.4-2.8,1.2c-0.7,0.8-1.2,2.1-1.5,3.8l-1.1,6c-0.4,0.1-0.7,0.1-1.1,0.1h-0.6L504,3323z"/>
		<path class="st3" d="M517.1,3317.7c0.1,1.2,0.3,2,0.9,2.6c0.5,0.6,1.4,0.9,2.5,0.9c0.7,0,1.4-0.1,2-0.2c0.6-0.2,1.2-0.3,1.7-0.5
			c0.2,0.3,0.3,0.6,0.3,0.9c0.1,0.4,0.1,0.7,0.1,1.1c-0.3,0.1-0.6,0.2-0.9,0.3c-0.4,0.1-0.8,0.2-1.2,0.3c-0.4,0.1-0.8,0.1-1.2,0.2
			c-0.4,0-0.8,0.1-1.1,0.1c-1,0-1.9-0.1-2.6-0.4s-1.3-0.6-1.7-1.1c-0.4-0.5-0.8-1-1-1.7c-0.2-0.6-0.3-1.4-0.3-2.1
			c0-1.1,0.2-2.1,0.5-3.1c0.4-1,0.9-2,1.5-2.8s1.5-1.5,2.4-2c0.9-0.5,2-0.8,3.1-0.8c1.1,0,2,0.3,2.7,0.8s1,1.3,1,2.2
			c0,0.8-0.2,1.4-0.6,2c-0.4,0.6-0.9,1-1.5,1.4c-0.7,0.4-1.4,0.7-2.3,1c-0.9,0.3-1.9,0.5-2.9,0.6L517.1,3317.7z M518.7,3315.5
			c0.9-0.2,1.6-0.3,2.2-0.5c0.6-0.2,1-0.4,1.4-0.6c0.3-0.2,0.6-0.5,0.7-0.7s0.2-0.5,0.2-0.9c0-0.4-0.1-0.7-0.4-1
			c-0.3-0.3-0.7-0.4-1.2-0.4c-0.6,0-1.1,0.1-1.5,0.4c-0.5,0.3-0.9,0.6-1.3,1c-0.4,0.4-0.7,0.9-0.9,1.4c-0.3,0.5-0.5,1.1-0.6,1.6
			L518.7,3315.5z"/>
	</g>
</g>
</svg>
