<svg xmlns="http://www.w3.org/2000/svg" xmlns:xlink="http://www.w3.org/1999/xlink" width="122.08" height="106.525" viewBox="0 0 122.08 106.525">
  <defs>
    <linearGradient id="linear-gradient" x1="0.062" y1="0.938" x2="0.938" y2="0.062" gradientUnits="objectBoundingBox">
      <stop offset="0" stop-color="#c8001e"/>
      <stop offset="0.317" stop-color="#d95149"/>
      <stop offset="1" stop-color="#d95149"/>
    </linearGradient>
    <linearGradient id="linear-gradient-2" x1="0" y1="0.5" x2="1" y2="0.5" xlink:href="#linear-gradient"/>
    <linearGradient id="linear-gradient-3" y1="0.5" x2="1" y2="0.5" gradientUnits="objectBoundingBox">
      <stop offset="0" stop-color="#2b3b64"/>
      <stop offset="1" stop-color="#00163a"/>
    </linearGradient>
    <linearGradient id="linear-gradient-4" y1="0.5" x2="1" y2="0.5" gradientUnits="objectBoundingBox">
      <stop offset="0" stop-color="#f1b5a8"/>
      <stop offset="0.317" stop-color="#fff"/>
      <stop offset="0.703" stop-color="#fff"/>
      <stop offset="1" stop-color="#d1d5ec"/>
    </linearGradient>
    <linearGradient id="linear-gradient-5" y1="0.5" x2="1" y2="0.5" gradientUnits="objectBoundingBox">
      <stop offset="0" stop-color="#2b3b64"/>
      <stop offset="1" stop-color="#55618a"/>
    </linearGradient>
  </defs>
  <g id="Group_137" data-name="Group 137" transform="translate(-9.286 -17.699)">
    <text id="Logistics" transform="translate(74.253 120.224)" fill="#c8001e" font-size="13" font-family="Aller-Bold, Aller" font-weight="700"><tspan x="0" y="0">Logistics</tspan></text>
    <path id="Path_97" data-name="Path 97" d="M9.33,89.827a17.666,17.666,0,0,1,2.42-.174,16.767,16.767,0,0,1,2.419.174l5.184,11.939,5.34-11.939a12.388,12.388,0,0,1,2.168-.174,14.682,14.682,0,0,1,2.293.174l-.1,20.836a15.726,15.726,0,0,1-2.262.174,12.685,12.685,0,0,1-2.1-.174l.6-14.141L18.912,110.25l-6-13.932.4,14.345a11.429,11.429,0,0,1-1.947.174,12.919,12.919,0,0,1-2.075-.174Z" transform="translate(0 -7.798)" fill="#00163a"/>
    <path id="Path_98" data-name="Path 98" d="M39.544,105.122a3.158,3.158,0,0,0,1.216,2.522,4.908,4.908,0,0,0,2.9.782,11.1,11.1,0,0,0,2.015-.189,11.438,11.438,0,0,0,1.955-.536,6.828,6.828,0,0,1,.551,1.391,7.153,7.153,0,0,1,.26,1.739,14.122,14.122,0,0,1-5.1.87,9.916,9.916,0,0,1-3.578-.58,6.341,6.341,0,0,1-2.434-1.608,6.44,6.44,0,0,1-1.391-2.449,10.761,10.761,0,0,1,.014-6.2,7.236,7.236,0,0,1,1.377-2.52,6.52,6.52,0,0,1,2.259-1.7,7.441,7.441,0,0,1,3.145-.623,6.682,6.682,0,0,1,2.783.551,6.15,6.15,0,0,1,2.071,1.506,6.367,6.367,0,0,1,1.289,2.275,8.953,8.953,0,0,1,.435,2.826q0,.55-.044,1.087t-.1.854Zm5.883-2.868a3.643,3.643,0,0,0-.769-2.245,2.435,2.435,0,0,0-1.985-.856,2.86,2.86,0,0,0-2.2.811,3.808,3.808,0,0,0-.9,2.29Z" transform="translate(-2.839 -8.488)" fill="#00163a"/>
    <path id="Path_99" data-name="Path 99" d="M63.511,89.439a9.866,9.866,0,0,1,1.029-.115c.338-.019.671-.029,1-.029s.668.011,1.016.029a9.852,9.852,0,0,1,1.042.115v20.692a20.79,20.79,0,0,1-2.767.623,22.784,22.784,0,0,1-3.405.218,10.219,10.219,0,0,1-2.941-.421,6.76,6.76,0,0,1-2.478-1.332,6.324,6.324,0,0,1-1.695-2.363,9.835,9.835,0,0,1-.087-6.65,7.39,7.39,0,0,1,1.536-2.536,7.249,7.249,0,0,1,2.419-1.7,7.779,7.779,0,0,1,3.159-.622q.522,0,1.087.043a5.817,5.817,0,0,1,1.087.188Zm0,9.3a6.2,6.2,0,0,0-1.855-.232,3.4,3.4,0,0,0-1.666.391,3.469,3.469,0,0,0-1.174,1.043,4.468,4.468,0,0,0-.68,1.535,7.7,7.7,0,0,0-.218,1.839,6.121,6.121,0,0,0,.29,2.015,3.333,3.333,0,0,0,.8,1.319,2.969,2.969,0,0,0,1.2.71,5.041,5.041,0,0,0,1.507.218,8.38,8.38,0,0,0,.9-.044,5.107,5.107,0,0,0,.9-.189Z" transform="translate(-4.812 -7.759)" fill="#00163a"/>
    <path id="Path_100" data-name="Path 100" d="M74.393,98.744H72.452a6.466,6.466,0,0,1-.131-.8,7.639,7.639,0,0,1-.044-.8,6.758,6.758,0,0,1,.175-1.535H78.42V110.6a12.234,12.234,0,0,1-2.028.175,12.073,12.073,0,0,1-2-.175Zm-.609-5.651a11.147,11.147,0,0,1-.173-1.942,11.5,11.5,0,0,1,.173-1.941q.494-.087,1.057-.13t1.03-.044q.492,0,1.072.044a10.779,10.779,0,0,1,1.073.13,8.855,8.855,0,0,1,.116.971c.019.318.029.642.029.97,0,.31-.011.628-.029.957a8.8,8.8,0,0,1-.116.985,8.547,8.547,0,0,1-1.057.116q-.567.028-1.058.029-.464,0-1.044-.029a8.58,8.58,0,0,1-1.072-.116" transform="translate(-6.826 -7.731)" fill="#00163a"/>
    <path id="Path_101" data-name="Path 101" d="M76.138,22.574,73.281,38.782,60.672,28.2,47.277,33.079,62.645,75.3l13.4-4.875-5.616-15.43,12.6,10.6L85.89,49.366l5.615,15.429L104.9,59.919,89.534,17.7Z" transform="translate(-4.117 0)" fill="#c8001e"/>
    <path id="Path_102" data-name="Path 102" d="M97.154,32.622,77.169,52.608a6.827,6.827,0,0,0,9.618,9.618L106.772,42.24a6.533,6.533,0,0,0-.4-9.213A6.535,6.535,0,0,0,97.154,32.622Z" transform="translate(-7.171 -1.432)" fill="none" stroke="#161615" stroke-miterlimit="10" stroke-width="0.2"/>
    <path id="Path_103" data-name="Path 103" d="M86.9,62.334c-2.5,2.5-6.751,2.319-9.474-.4a6.725,6.725,0,0,1-.4-9.474L97,32.47c2.5-2.5,6.75-2.319,9.474.4s2.9,6.973.4,9.474Z" transform="translate(-7.149 -1.41)" fill="#00163a"/>
    <path id="Path_104" data-name="Path 104" d="M86.548,61.988a6.421,6.421,0,0,1-9.041-9.041L97.493,32.962a6.133,6.133,0,0,1,8.636.4,6.135,6.135,0,0,1,.4,8.636Z" transform="translate(-7.221 -1.482)" fill="url(#linear-gradient)"/>
    <g id="Group_134" data-name="Group 134" transform="translate(68.695 29.889)">
      <path id="Path_105" data-name="Path 105" d="M101.44,31.371a5.526,5.526,0,0,0-3.947,1.59L77.507,52.946a6.134,6.134,0,0,0,.4,8.637c2.492,2.491,6.366,2.674,8.635.4L106.534,42a6.136,6.136,0,0,0-.4-8.637,6.669,6.669,0,0,0-4.686-1.994h0" transform="translate(-75.916 -31.371)" fill="url(#linear-gradient-2)"/>
    </g>
    <path id="Path_106" data-name="Path 106" d="M98.584,32.622,89.2,42c-1.311,1.312-.221,4.529,2.436,7.185s5.871,3.747,7.184,2.434l9.377-9.377a6.536,6.536,0,0,0-.4-9.215,7.08,7.08,0,0,0-4.977-2.116,5.932,5.932,0,0,0-4.236,1.712" transform="translate(-8.601 -1.432)" fill="url(#linear-gradient-3)"/>
    <path id="Path_107" data-name="Path 107" d="M99.161,34.15,78.7,54.614c-2.25,2.25-2.159,4.63-.634,6.155a2.944,2.944,0,0,0,.235.2c-1.019-1.254-1.056-2.979,1.021-5.055l21.144-21.145c2.077-2.075,3.8-2.041,5.055-1.021a2.783,2.783,0,0,0-.2-.234,3.607,3.607,0,0,0-2.575-1.107,5.164,5.164,0,0,0-3.579,1.74" transform="translate(-7.334 -1.594)" fill="url(#linear-gradient-4)"/>
    <path id="Path_108" data-name="Path 108" d="M94.606,52.047a8.06,8.06,0,0,0,2.369,1.023l11.734-11.733-.051-.051a8.215,8.215,0,0,1-2.285-1.007Z" transform="translate(-9.246 -2.447)" fill="url(#linear-gradient-5)"/>
    <path id="Path_109" data-name="Path 109" d="M82.893,63.921a5.355,5.355,0,0,0,2.588.8L95.706,54.5a8.07,8.07,0,0,1-2.369-1.023Z" transform="translate(-7.977 -3.877)" fill="#f1b5a8"/>
    <path id="Path_110" data-name="Path 110" d="M98.584,32.622,89.205,42c-1.312,1.312-.221,4.529,2.435,7.185s5.871,3.746,7.184,2.434l9.377-9.378a6.534,6.534,0,0,0-.4-9.214,6.535,6.535,0,0,0-9.214-.4m9.33,9.33L98.535,51.33c-1.131,1.131-4.157.016-6.607-2.434s-3.565-5.476-2.434-6.607l9.378-9.378a6.134,6.134,0,0,1,8.636.4,6.133,6.133,0,0,1,.4,8.636" transform="translate(-8.601 -1.432)" fill="#00163a"/>
    <g id="Group_136" data-name="Group 136" transform="translate(26.445 22.453)">
      <path id="Path_111" data-name="Path 111" d="M91.117,70.108A23.539,23.539,0,1,1,114.655,46.57,23.565,23.565,0,0,1,91.117,70.108m0-45.526A21.987,21.987,0,1,0,113.1,46.57,22.012,22.012,0,0,0,91.117,24.582" transform="translate(-32.762 -23.031)" fill="#00163a"/>
      <g id="Group_135" data-name="Group 135" transform="translate(43.372 8.557)">
        <path id="Path_112" data-name="Path 112" d="M78.11,50.505a.776.776,0,0,1-.766-.66A14.966,14.966,0,0,1,94.391,32.8a.776.776,0,0,1-.232,1.534A13.407,13.407,0,0,0,78.879,49.614a.776.776,0,0,1-.652.883.752.752,0,0,1-.117.009" transform="translate(-77.174 -32.628)" fill="#00163a"/>
        <path id="Path_113" data-name="Path 113" d="M93.626,64.063a15.073,15.073,0,0,1-2.234-.171.775.775,0,1,1,.231-1.534A13.412,13.412,0,0,0,106.9,47.077a.776.776,0,1,1,1.534-.232A14.961,14.961,0,0,1,93.626,64.063" transform="translate(-78.643 -34.097)" fill="#00163a"/>
      </g>
      <path id="Path_114" data-name="Path 114" d="M29.422,65.594a.892.892,0,0,1-.651-1.5c.131-.14,3.238-3.434,6.15-4.495a12.8,12.8,0,0,1,5.448-.442,13.043,13.043,0,0,0,5.64-.483,15,15,0,0,0,5.01-3.555,16.948,16.948,0,0,1,5.755-4.011,15.885,15.885,0,0,1,6.853-.646.891.891,0,0,1-.254,1.765,14.292,14.292,0,0,0-5.989.557,15.334,15.334,0,0,0-5.146,3.638,16.631,16.631,0,0,1-5.617,3.929,14.74,14.74,0,0,1-6.369.585,11.242,11.242,0,0,0-4.72.34c-2.51.914-5.429,4.007-5.458,4.037a.888.888,0,0,1-.651.283" transform="translate(-28.53 -25.99)" fill="#00163a"/>
      <path id="Path_115" data-name="Path 115" d="M31.339,70.863a.892.892,0,0,1-.651-1.5c.132-.139,3.238-3.434,6.151-4.494a12.81,12.81,0,0,1,5.448-.443,13.06,13.06,0,0,0,5.64-.483,15.019,15.019,0,0,0,5.01-3.555,16.939,16.939,0,0,1,5.755-4.011,15.73,15.73,0,0,1,6.288-.707.891.891,0,0,1-.15,1.776,13.9,13.9,0,0,0-5.528.606,15.326,15.326,0,0,0-5.146,3.638,16.627,16.627,0,0,1-5.617,3.929,14.728,14.728,0,0,1-6.369.586,11.236,11.236,0,0,0-4.719.339c-2.517.917-5.431,4.007-5.459,4.038a.888.888,0,0,1-.651.282" transform="translate(-28.738 -26.562)" fill="#00163a"/>
      <path id="Path_116" data-name="Path 116" d="M33.257,76.132a.892.892,0,0,1-.651-1.5c.132-.139,3.238-3.434,6.151-4.494a12.782,12.782,0,0,1,5.448-.443,13.059,13.059,0,0,0,5.64-.483,15.018,15.018,0,0,0,5.01-3.555,16.94,16.94,0,0,1,5.755-4.011A15.9,15.9,0,0,1,67.462,61a.891.891,0,0,1-.254,1.765,14.275,14.275,0,0,0-5.989.557,15.326,15.326,0,0,0-5.146,3.638,16.627,16.627,0,0,1-5.617,3.929,14.7,14.7,0,0,1-6.369.585,11.25,11.25,0,0,0-4.719.34c-2.517.917-5.431,4.007-5.459,4.037a.885.885,0,0,1-.651.283" transform="translate(-28.946 -27.132)" fill="#00163a"/>
    </g>
    <path id="Union_1" data-name="Union 1" d="M-2003.365,21.735h-22.591a1.292,1.292,0,0,1-1.289-1.289,1.293,1.293,0,0,1,1.289-1.289h19.636a1.292,1.292,0,0,0,1.288-1.287,1.293,1.293,0,0,0-1.288-1.289h-11.649a1.293,1.293,0,0,1-1.288-1.288A1.293,1.293,0,0,1-2017.968,14h12.335a1.292,1.292,0,0,0,1.287-1.288,1.291,1.291,0,0,0-1.287-1.288h-18.274a1.292,1.292,0,0,1-1.288-1.288,1.291,1.291,0,0,1,1.288-1.289h13.969a1.292,1.292,0,0,0,1.288-1.29,1.292,1.292,0,0,0-1.288-1.287h-11.124a1.293,1.293,0,0,1-1.29-1.289,1.293,1.293,0,0,1,1.29-1.288h29.892a1.292,1.292,0,0,1,1.288,1.288V20.446a1.292,1.292,0,0,1-1.288,1.289Zm-20.99-5.153a1.293,1.293,0,0,1-1.289-1.288A1.293,1.293,0,0,1-2024.355,14h1.673a1.293,1.293,0,0,1,1.289,1.289,1.293,1.293,0,0,1-1.289,1.288Zm-3.071-10.306a1.292,1.292,0,0,1-1.289-1.289,1.292,1.292,0,0,1,1.289-1.288h1.79a1.293,1.293,0,0,1,1.289,1.288,1.292,1.292,0,0,1-1.289,1.289Z" transform="translate(2103.752 72.136)" fill="#00163a" stroke="rgba(0,0,0,0)" stroke-width="1"/>
    <path id="Path_120" data-name="Path 120" d="M105.6,109.179a5.047,5.047,0,1,0,5.048,5.047,5.047,5.047,0,0,0-5.048-5.047m0,7.7a2.651,2.651,0,1,1,2.652-2.652,2.652,2.652,0,0,1-2.652,2.652" transform="translate(-9.891 -9.914)" fill="#00163a"/>
    <path id="Path_121" data-name="Path 121" d="M132.679,109.179a5.047,5.047,0,1,0,5.048,5.047,5.047,5.047,0,0,0-5.048-5.047m0,7.7a2.651,2.651,0,1,1,2.652-2.652,2.652,2.652,0,0,1-2.652,2.652" transform="translate(-12.825 -9.914)" fill="#00163a"/>
    <path id="Path_122" data-name="Path 122" d="M138.762,96.97l-6.43-7.778a5.193,5.193,0,0,0-3.516-1.656h-2.063a2.153,2.153,0,0,0-2.147,2.148v11.283a2.153,2.153,0,0,1-2.148,2.147H92.3a2.154,2.154,0,0,0-2.148,2.147v3.275a2.153,2.153,0,0,0,2.148,2.147h5.553a6.73,6.73,0,0,1,13.245,0h10.9a6.73,6.73,0,0,1,13.245,0h2.744a2.153,2.153,0,0,0,2.147-2.147v-7.764a6.959,6.959,0,0,0-1.367-3.8m-3.133,2.538h-6.565a1.025,1.025,0,0,1-1.023-1.022V92c0-.563.208-1.023.462-1.023a3.2,3.2,0,0,1,1.112.267,5.985,5.985,0,0,1,1.056,1.032L136,98.721c.358.433.191.788-.371.788" transform="translate(-8.763 -7.568)" fill="#c8001e"/>
  </g>
</svg>
