<svg xmlns="http://www.w3.org/2000/svg" width="186.199" height="186.199" viewBox="0 0 186.199 186.199">
  <g id="Group_10535" data-name="Group 10535" transform="translate(0.5 0.5)">
    <g id="Group_10536" data-name="Group 10536">
      <g id="Group_10535-2" data-name="Group 10535" transform="translate(27.52 31.409)">
        <g id="Group_10523" data-name="Group 10523">
          <path id="Path_246" data-name="Path 246" d="M1835.453,1041.792H1813.28s2.685-7.784,11.214-7.784S1835.453,1041.792,1835.453,1041.792Z" transform="translate(-1718.52 -963.043)" fill="#c8001e"/>
          <path id="Path_234" data-name="Path 234" d="M56.53,26.848,46.2,16.1V1.919l-11.506,0V6.029L26.99,0-2.293,26.5l1.163,2.27H5.449V53.7h13.9V40.272a7.671,7.671,0,0,1,15.341,0V53.7H48.6V28.766h6.879Z" transform="translate(19.473 -0.001)" fill="none" stroke="#000" stroke-miterlimit="10" stroke-width="1"/>
          <path id="Path_235" data-name="Path 235" d="M343.017,451.014a22.818,22.818,0,0,1-23.012,0" transform="translate(-225.568 -342.903)" fill="none" stroke="#000" stroke-miterlimit="10" stroke-width="1"/>
          <line id="Line_57" data-name="Line 57" x1="17.439" transform="translate(99.339 78.624)" fill="none" stroke="#000" stroke-miterlimit="10" stroke-width="1"/>
          <path id="Path_236" data-name="Path 236" d="M310.357,285.272h-4.506a11.5,11.5,0,1,0-17.618,13.108,15.343,15.343,0,0,0-8.55,13.591,23.012,23.012,0,1,1,30.668,0h0a15.342,15.342,0,0,0-8.55-13.591c2.964-2.16,6.146-6.495,4.051-13.108" transform="translate(-189.073 -206.648)" fill="none" stroke="#000" stroke-miterlimit="10" stroke-width="1"/>
          <path id="Path_237" data-name="Path 237" d="M378.1,88H355.088a1.917,1.917,0,0,0-1.918,1.915V109.1a1.917,1.917,0,0,0,1.915,1.918H378.1a1.917,1.917,0,0,0,1.918-1.915V89.92A1.917,1.917,0,0,0,378.1,88Z" transform="translate(-250.783 -66.908)" fill="none" stroke="#000" stroke-miterlimit="10" stroke-width="1"/>
          <rect id="Rectangle_61" data-name="Rectangle 61" width="7.671" height="7.671" transform="translate(111.975 21.094)" fill="none" stroke="#000" stroke-miterlimit="10" stroke-width="1"/>
          <path id="Path_238" data-name="Path 238" d="M-5.087,272.44H-45.9a2.55,2.55,0,0,0-2.551,2.548v5.1H-63.76a2.55,2.55,0,0,0-2.187,1.238l-6.123,10.2,0,.006-1.527,2.545a2.538,2.538,0,0,0-.364,1.313V310.7a2.549,2.549,0,0,0,2.548,2.551h5.575a7.606,7.606,0,0,0,9.687,4.678,7.606,7.606,0,0,0,4.678-4.678h23.9a7.606,7.606,0,0,0,9.687,4.678,7.605,7.605,0,0,0,4.678-4.678H-5.09a2.55,2.55,0,0,0,2.551-2.548V274.991A2.55,2.55,0,0,0-5.087,272.44Z" transform="translate(73.964 -207.135)" fill="none" stroke="#000" stroke-miterlimit="10" stroke-width="1"/>
          <path id="Path_239" data-name="Path 239" d="M-18.2,426.527a2.551,2.551,0,0,1-2.551-2.551,2.551,2.551,0,0,1,2.551-2.551,2.551,2.551,0,0,1,2.551,2.551A2.553,2.553,0,0,1-18.2,426.527Z" transform="translate(33.51 -320.407)" fill="none" stroke="#000" stroke-miterlimit="10" stroke-width="1"/>
          <path id="Path_240" data-name="Path 240" d="M141.422,426.527a2.551,2.551,0,1,1,2.551-2.551A2.551,2.551,0,0,1,141.422,426.527Z" transform="translate(-87.853 -320.407)" fill="none" stroke="#000" stroke-miterlimit="10" stroke-width="1"/>
          <path id="Path_241" data-name="Path 241" d="M32.454,304.366v33.162" transform="translate(-6.944 -231.408)" fill="none" stroke="#000" stroke-miterlimit="10" stroke-width="1"/>
          <line id="Line_58" data-name="Line 58" x2="25.509" transform="translate(0 88.263)" fill="none" stroke="#000" stroke-miterlimit="10" stroke-width="1"/>
          <path id="Path_242" data-name="Path 242" d="M125.238,415.446a7.653,7.653,0,1,1,7.653-7.653A7.654,7.654,0,0,1,125.238,415.446Z" transform="translate(-71.67 -304.224)" fill="none" stroke="#000" stroke-miterlimit="10" stroke-width="1"/>
          <path id="Path_243" data-name="Path 243" d="M-34.388,415.446a7.653,7.653,0,0,1-7.653-7.653,7.653,7.653,0,0,1,7.653-7.653,7.654,7.654,0,0,1,7.653,7.653A7.658,7.658,0,0,1-34.388,415.446Z" transform="translate(49.693 -304.224)" fill="none" stroke="#000" stroke-miterlimit="10" stroke-width="1"/>
          <path id="Path_244" data-name="Path 244" d="M273.263,168H256" transform="translate(-176.909 -127.731)" fill="none" stroke="#000" stroke-miterlimit="10" stroke-width="1"/>
          <path id="Path_245" data-name="Path 245" d="M264.236,130.346,256,139.372l8.232,9.027" transform="translate(-176.909 -99.102)" fill="none" stroke="#000" stroke-miterlimit="10" stroke-width="1"/>
          <line id="Line_59" data-name="Line 59" y1="11.506" transform="translate(115.81 47.941)" fill="none" stroke="#000" stroke-miterlimit="10" stroke-width="1"/>
        </g>
      </g>
      <circle id="Ellipse_3140" data-name="Ellipse 3140" cx="92.6" cy="92.6" r="92.6" fill="none" stroke="#000" stroke-linecap="round" stroke-miterlimit="10" stroke-width="1"/>
    </g>
  </g>
</svg>
