<svg xmlns="http://www.w3.org/2000/svg" width="186.199" height="186.199" viewBox="0 0 186.199 186.199">
  <g id="Group_150" data-name="Group 150" transform="translate(0.5 0.5)">
    <path id="Path_140" data-name="Path 140" d="M261.281,144.747a15.826,15.826,0,0,0-4.526.539,21.59,21.59,0,0,0-4.57,2.056V128a9.7,9.7,0,0,0-9.689-9.689h-6.624a9.955,9.955,0,0,0-6.285,2.242l-.65.531a6.7,6.7,0,0,1-8.487,0l-.65-.531a9.958,9.958,0,0,0-6.285-2.242h-6.624A9.7,9.7,0,0,0,197.2,128v19.339c-.188-.1-5.109-2.524-5.109-2.524" transform="translate(-134.018 -83.853)" fill="none" stroke="#000" stroke-linecap="round" stroke-miterlimit="10" stroke-width="1"/>
    <path id="Path_141" data-name="Path 141" d="M372.688,199.454H374.2a7.123,7.123,0,0,0,7.115-7.115v-3.647a7.164,7.164,0,0,0-3.688-6.222V173.7" transform="translate(-250.357 -121.511)" fill="none" stroke="#000" stroke-linecap="round" stroke-miterlimit="10" stroke-width="1"/>
    <path id="Path_142" data-name="Path 142" d="M504.244,562.01" transform="translate(-346.261 -385.538)" fill="none" stroke="#000" stroke-linecap="round" stroke-miterlimit="10" stroke-width="1"/>
    <path id="Path_143" data-name="Path 143" d="M168.692,434.728l-3.9.964a1.869,1.869,0,0,1-1.362-.169,1.425,1.425,0,0,1-.723-1.014l-4.064-26.2a7.773,7.773,0,0,1,0-2.395c.541-3.462,3.572-6.466,7.543-7.474l.514-.131.072-.018c3.865-.956,7.763.12,9.945,2.752a7.806,7.806,0,0,1,1.383,2.452l8.62,25.076a1.426,1.426,0,0,1-.167,1.234,1.872,1.872,0,0,1-1.126.784l-3.9.964" transform="translate(-111.215 -273.984)" fill="none" stroke="#000" stroke-linecap="round" stroke-miterlimit="10" stroke-width="1"/>
    <circle id="Ellipse_3" data-name="Ellipse 3" cx="12.186" cy="12.186" r="12.186" transform="translate(110.44 133.563)" fill="none" stroke="#000" stroke-linecap="round" stroke-miterlimit="10" stroke-width="1"/>
    <path id="Path_144" data-name="Path 144" d="M180.379,340.751s-6.743-20.091,14.383-27.935" transform="translate(-125.144 -216.408)" fill="none" stroke="#000" stroke-linecap="round" stroke-miterlimit="10" stroke-width="1"/>
    <path id="Path_145" data-name="Path 145" d="M375.983,349.974s10.289-28.047-13.995-37.154" transform="translate(-250.357 -216.412)" fill="none" stroke="#000" stroke-linecap="round" stroke-miterlimit="10" stroke-width="1"/>
    <path id="Path_146" data-name="Path 146" d="M133.574,371.575l-33.284,7.287a11.589,11.589,0,0,0-8.123,9.2l-2.824,16.535" transform="translate(-64.156 -256.054)" fill="none" stroke="#000" stroke-linecap="round" stroke-miterlimit="10" stroke-width="1"/>
    <path id="Path_147" data-name="Path 147" d="M244.97,75.69V71.918c0-10.417-7.679-25.775-36.592-25.775S171.787,61.5,171.787,71.918V95.74a7.164,7.164,0,0,0-3.688,6.222v3.647a7.123,7.123,0,0,0,7.115,7.115h1.508" transform="translate(-117.704 -34.782)" fill="none" stroke="#000" stroke-linecap="round" stroke-miterlimit="10" stroke-width="1"/>
    <path id="Path_148" data-name="Path 148" d="M194.832,247.584c0,7.95,10.773,29.038,31.721,29.038s31.721-21.088,31.721-29.038" transform="translate(-135.881 -171.749)" fill="none" stroke="#000" stroke-linecap="round" stroke-miterlimit="10" stroke-width="1"/>
    <path id="Path_149" data-name="Path 149" d="M233.1,326.5v6.718c0,3.3-2.329,7.059-5.567,7.709" transform="translate(-158.117 -225.406)" fill="none" stroke="#000" stroke-linecap="round" stroke-miterlimit="10" stroke-width="1"/>
    <path id="Path_150" data-name="Path 150" d="M348.533,340.927c-3.238-.651-5.567-4.407-5.567-7.709V326.5" transform="translate(-236.602 -225.406)" fill="none" stroke="#000" stroke-linecap="round" stroke-miterlimit="10" stroke-width="1"/>
    <path id="Path_153" data-name="Path 153" d="M.252.139l19.335,14.5" transform="translate(71.088 114.714)" fill="none" stroke="#000" stroke-linecap="round" stroke-width="1"/>
    <line id="Line_2" data-name="Line 2" x1="18.826" y2="14.487" transform="translate(90.674 114.866)" fill="none" stroke="#000" stroke-linecap="round" stroke-miterlimit="10" stroke-width="1"/>
    <g id="Group_152" data-name="Group 152" transform="translate(80.877 129.353)">
      <path id="Path_129" data-name="Path 129" d="M282.419,447.55h-7.887l-3.339,17.422s5.077,15.054,7.283,15.054,7.177-14.775,7.177-14.775Z" transform="translate(-268.678 -437.066)" fill="#d4112a"/>
      <path id="Path_130" data-name="Path 130" d="M273.779,414.793l-9.8,3.647,5.854,6.837h7.887l6.091-7.155Z" transform="translate(-263.982 -414.793)" fill="#d4112a"/>
    </g>
    <line id="Line_5" data-name="Line 5" x1="5.55" y1="6.452" transform="translate(81.181 133.386)" fill="none" stroke="#000" stroke-linecap="round" stroke-miterlimit="10" stroke-width="1"/>
    <line id="Line_6" data-name="Line 6" y1="7.143" x2="6.058" transform="translate(94.618 132.695)" fill="none" stroke="#000" stroke-linecap="round" stroke-miterlimit="10" stroke-width="1"/>
    <line id="Line_7" data-name="Line 7" y1="17.422" x2="3.339" transform="translate(83.392 139.838)" fill="none" stroke="#000" stroke-linecap="round" stroke-miterlimit="10" stroke-width="1"/>
    <line id="Line_8" data-name="Line 8" x1="3.233" y1="17.701" transform="translate(94.618 139.838)" fill="none" stroke="#000" stroke-linecap="round" stroke-miterlimit="10" stroke-width="1"/>
    <line id="Line_9" data-name="Line 9" x2="7.887" transform="translate(86.731 139.838)" fill="none" stroke="#000" stroke-linecap="round" stroke-miterlimit="10" stroke-width="1"/>
    <path id="Path_151" data-name="Path 151" d="M220.728,375.129c.72,1.515,2.5,5.544,5.325,12.6,2.846,7.122,6.383,16.25,9.776,25.124q.037.112.084.218c2.264,5.924,4.46,11.727,6.339,16.732a2.3,2.3,0,0,0,4.307,0c1.878-5.005,4.074-10.808,6.339-16.732a2.283,2.283,0,0,0,.083-.218c3.39-8.869,6.926-17.991,9.771-25.111,2.828-7.067,4.511-11.128,5.231-12.645" transform="translate(-153.73 -258.984)" fill="none" stroke="#000" stroke-linecap="round" stroke-miterlimit="10" stroke-width="1"/>
    <path id="Path_152" data-name="Path 152" d="M94.033,413.689a92.585,92.585,0,0,0,131.143.684l-4.495-26.315a11.59,11.59,0,0,0-8.122-9.2l-33.283-7.287" transform="translate(-67.344 -256.054)" fill="none" stroke="#000" stroke-linecap="round" stroke-miterlimit="10" stroke-width="1"/>
    <circle id="Ellipse_1" data-name="Ellipse 1" cx="92.6" cy="92.6" r="92.6" fill="none" stroke="#000" stroke-linecap="round" stroke-miterlimit="10" stroke-width="1"/>
    <line id="Line_3" data-name="Line 3" x1="15.689" y1="5.242" transform="translate(90.674 129.353)" fill="none" stroke="#000" stroke-linecap="round" stroke-miterlimit="10" stroke-width="1"/>
    <line id="Line_4" data-name="Line 4" y1="5.916" x2="15.771" transform="translate(74.904 129.353)" fill="none" stroke="#000" stroke-linecap="round" stroke-miterlimit="10" stroke-width="1"/>
  </g>
</svg>
