<svg xmlns="http://www.w3.org/2000/svg" width="198.971" height="190.788" viewBox="0 0 198.971 190.788">
  <g id="Group_158" data-name="Group 158" transform="translate(0 -11.769)">
    <path id="Path_154" data-name="Path 154" d="M445.24,133.119a92.7,92.7,0,0,0-28.4-51.857" transform="translate(-254.852 -46.097)" fill="none" stroke="#000" stroke-miterlimit="10" stroke-width="1"/>
    <path id="Path_155" data-name="Path 155" d="M356.964,45.455a92.376,92.376,0,0,0-30.61-16.334" transform="translate(-199.528 -14.218)" fill="none" stroke="#000" stroke-miterlimit="10" stroke-width="1"/>
    <path id="Path_156" data-name="Path 156" d="M87.238,27.879a92.464,92.464,0,0,0-65.152,72.6" transform="translate(-13.503 -13.459)" fill="none" stroke="#000" stroke-miterlimit="10" stroke-width="1"/>
    <path id="Path_157" data-name="Path 157" d="M297.3,372.151A92.419,92.419,0,0,0,372.151,297.3" transform="translate(-181.763 -178.177)" fill="none" stroke="#000" stroke-miterlimit="10" stroke-width="1"/>
    <path id="Path_158" data-name="Path 158" d="M22.086,297.3A92.419,92.419,0,0,0,96.94,372.151" transform="translate(-13.503 -178.177)" fill="none" stroke="#000" stroke-miterlimit="10" stroke-width="1"/>
    <path id="Path_159" data-name="Path 159" d="M89.7,237.048a24.447,24.447,0,0,0-12.674,21.426v6.963H71m58.254-35a30.11,30.11,0,0,0-11.434,10.227,24.074,24.074,0,0,0-4.941-3.543m60.029,0a24.144,24.144,0,0,0-4.964,3.567,30.081,30.081,0,0,0-11.475-10.16m47.156,12.956a24.326,24.326,0,0,0-7.538-6.432m-11.611,6.526,22.345,21.86h-8.355v-8.355h0v8.355H173.012v-8.032a30.079,30.079,0,0,0-2.209-11.322m43.985,19.353h-6.024v-6.963a24.3,24.3,0,0,0-1.831-9.284m-91.958-3.118a30.3,30.3,0,0,0-2.2,11.334v8.032h-6.8m-5.829,0H87.322v-8.355h0v8.355H78.967m92.1,0H160.382v-9.521h0v9.521H125.406v-9.521h0v9.521H114.719" transform="translate(-43.408 -137.3)" fill="none" stroke="#000" stroke-miterlimit="10" stroke-width="1"/>
    <path id="Path_160" data-name="Path 160" d="M256,263v5.829" transform="translate(-156.514 -157.208)" fill="none" stroke="#000" stroke-miterlimit="10" stroke-width="1"/>
    <path id="Path_161" data-name="Path 161" d="M256,293v5.829" transform="translate(-156.514 -175.55)" fill="none" stroke="#000" stroke-miterlimit="10" stroke-width="1"/>
    <path id="Path_162" data-name="Path 162" d="M143.008,203.872a10.452,10.452,0,0,1-20.9,0v-7.186a10.452,10.452,0,0,1,20.9,0Z" transform="translate(-74.652 -110.275)" fill="none" stroke="#000" stroke-miterlimit="10" stroke-width="1"/>
    <path id="Path_163" data-name="Path 163" d="M357.008,203.872a10.452,10.452,0,1,1-20.9,0v-7.186a10.452,10.452,0,1,1,20.9,0Z" transform="translate(-205.489 -110.275)" fill="none" stroke="#000" stroke-miterlimit="10" stroke-width="1"/>
    <path id="Path_164" data-name="Path 164" d="M248.759,172.828a12.632,12.632,0,1,1-25.264,0v-8.684a12.632,12.632,0,1,1,25.264,0Z" transform="translate(-136.641 -89.046)" fill="none" stroke="#000" stroke-miterlimit="10" stroke-width="1"/>
    <path id="Subtraction_1" data-name="Subtraction 1" d="M-2427.815-827.18h0a50.248,50.248,0,0,1-7.241-7.122,37.084,37.084,0,0,1-4.979-7.631,21.5,21.5,0,0,1-2.263-9.213,14.391,14.391,0,0,1,4.243-10.243,14.389,14.389,0,0,1,10.242-4.243,14.391,14.391,0,0,1,10.243,4.243,14.391,14.391,0,0,1,4.243,10.243,21.953,21.953,0,0,1-2.263,9.379,35.844,35.844,0,0,1-4.98,7.613,47.175,47.175,0,0,1-7.242,6.975Zm0-31.236a6.676,6.676,0,0,0-6.668,6.669,6.676,6.676,0,0,0,6.668,6.669,6.677,6.677,0,0,0,6.669-6.669A6.677,6.677,0,0,0-2427.815-858.416Z" transform="translate(2527.3 877.902)" fill="#c8001e" stroke="#000" stroke-miterlimit="10" stroke-width="1"/>
    <g id="Group_158-2" data-name="Group 158" transform="translate(43.511 46.125)">
      <line id="Line_10" data-name="Line 10" y1="19.025" x2="19.025" transform="translate(0 94.868)" fill="none" stroke="#000" stroke-miterlimit="10" stroke-width="1"/>
      <line id="Line_11" data-name="Line 11" x2="19.025" y2="19.026" transform="translate(92.924 94.868)" fill="none" stroke="#000" stroke-miterlimit="10" stroke-width="1"/>
      <line id="Line_12" data-name="Line 12" x1="19.025" y1="19.025" fill="none" stroke="#000" stroke-miterlimit="10" stroke-width="1"/>
      <line id="Line_13" data-name="Line 13" x1="19.026" y2="19.025" transform="translate(92.924 0)" fill="none" stroke="#000" stroke-miterlimit="10" stroke-width="1"/>
    </g>
    <line id="Line_14" data-name="Line 14" y2="20.985" transform="translate(99.486 181.572)" fill="none" stroke="#000" stroke-miterlimit="10" stroke-width="1"/>
    <line id="Line_15" data-name="Line 15" x1="19.662" transform="translate(0 102.967)" fill="none" stroke="#000" stroke-miterlimit="10" stroke-width="1"/>
    <line id="Line_16" data-name="Line 16" x1="19.662" transform="translate(179.309 102.967)" fill="none" stroke="#000" stroke-miterlimit="10" stroke-width="1"/>
  </g>
</svg>
